<svg id="svg" fill="#ffffff" stroke="#ffffff" width="200" height="200" version="1.1" viewBox="144 144 512 512" xmlns="http://www.w3.org/2000/svg">
    <g id="IconSvg_bgCarrier" stroke-width="0"></g>
    <g id="IconSvg_tracerCarrier" stroke-linecap="round" stroke-linejoin="round" stroke="#CCCCCC" stroke-width="0">
      <g xmlns="http://www.w3.org/2000/svg">
  <path d="m485.29 193.84 48.469 27.562c1.3008 0.75391 2.7305 1.0898 4.1367 1.0898 2.918 0 5.75-1.5312 7.3047-4.2422 2.2891-4.0312 0.88281-9.1523-3.1484-11.441l-48.469-27.562c-3.9453-2.2891-9.1523-0.88281-11.441 3.1484-2.3086 4.0117-0.90234 9.1367 3.1484 11.445z"></path>
  <path d="m460.27 210.63 71.773 40.828c1.3008 0.75391 2.75 1.0898 4.1562 1.0898 2.918 0 5.75-1.5312 7.3047-4.2422 2.2891-4.0312 0.88281-9.1523-3.1289-11.441l-71.773-40.828c-3.9883-2.2891-9.1719-0.88281-11.461 3.1484-2.2852 4.0352-0.87891 9.1562 3.1289 11.445z"></path>
  <path d="m593.08 239.01c-3.9453-2.2891-9.1719-0.88281-11.441 3.1484-28.172 49.543-124.5 50.695-125.47 50.719-4.3242 0.019532-106.97 1.1953-139.97 59.172-33 57.98 18.453 146.8 20.656 150.57 0.48438 0.82031 48.766 84.113 20.531 133.74-2.2891 4.0312-0.88281 9.1719 3.1484 11.461 1.3008 0.73438 2.7305 1.1133 4.1367 1.1133 2.918 0 5.75-1.5312 7.3047-4.2422 32.98-58-18.453-146.82-20.656-150.6-0.48437-0.82031-48.766-84.113-20.531-133.74 28.191-49.543 124.5-50.695 125.47-50.695h0.019532c3.8203-0.69141 106.87-1.0703 139.95-59.199 2.3125-4.0234 0.90625-9.168-3.1484-11.453z"></path>
  <path d="m378.16 491.2c2.7578 3.625 2.0586 8.8008-1.5703 11.559-3.625 2.7617-8.8008 2.0586-11.559-1.5664-2.7578-3.625-2.0586-8.8008 1.5664-11.562 3.6289-2.7578 8.8047-2.0547 11.562 1.5703"></path>
  <path d="m404.85 485.65c3.1211 3.3203 2.9609 8.5391-0.35937 11.66-3.3203 3.1211-8.5391 2.9609-11.66-0.35938-3.1211-3.3203-2.9609-8.5391 0.35938-11.66 3.3164-3.1211 8.5391-2.9609 11.66 0.35938"></path>
  <path d="m433.66 475.33c3.6094 2.7773 4.2852 7.957 1.5039 11.57-2.7773 3.6094-7.957 4.2812-11.57 1.5039-3.6094-2.7812-4.2812-7.9609-1.5039-11.57 2.7812-3.6094 7.9609-4.2852 11.57-1.5039"></path>
  <path d="m459.42 458.77c4.2031 1.7617 6.1797 6.5938 4.418 10.797-1.7617 4.2031-6.5977 6.1797-10.797 4.418-4.2031-1.7617-6.1797-6.5977-4.418-10.801 1.7617-4.1992 6.5977-6.1797 10.797-4.4141"></path>
  <path d="m480.89 436.24c3.9609 2.2539 5.3477 7.2891 3.0938 11.25-2.2539 3.9609-7.293 5.3438-11.25 3.0898-3.9609-2.25-5.3438-7.2891-3.0938-11.25 2.2539-3.9609 7.293-5.3438 11.25-3.0898"></path>
  <path d="m493.6 410.71c1.8047 4.1836-0.12109 9.0352-4.3047 10.84-4.1836 1.8047-9.0391-0.12109-10.844-4.3047-1.8047-4.1836 0.125-9.0391 4.3086-10.844 4.1836-1.8047 9.0352 0.125 10.84 4.3086"></path>
  <path d="m491.72 377.25c2.8164 3.582 2.1953 8.7656-1.3867 11.582-3.582 2.8164-8.7695 2.1953-11.586-1.3867-2.8125-3.582-2.1914-8.7695 1.3906-11.586 3.582-2.8125 8.7656-2.1914 11.582 1.3906"></path>
  <path d="m483.7 345.86c3.3516 3.0859 3.5664 8.3047 0.48047 11.656-3.0859 3.3516-8.3047 3.5664-11.656 0.48047-3.3516-3.0859-3.5664-8.3086-0.48047-11.656 3.0859-3.3516 8.3086-3.5664 11.656-0.48047"></path>
  <path d="m473.34 319.4c3.6523 2.7227 4.4102 7.8906 1.6875 11.543-2.7227 3.6523-7.8906 4.4102-11.547 1.6875-3.6523-2.7227-4.4062-7.8906-1.6836-11.547 2.7227-3.6523 7.8906-4.4062 11.543-1.6836"></path>
  <path d="m443.53 268.9c4.4648 0.91016 7.3438 5.2695 6.4297 9.7344-0.91016 4.4648-5.2695 7.3438-9.7344 6.4336-4.4648-0.91406-7.3438-5.2734-6.4297-9.7383 0.91016-4.4609 5.2695-7.3438 9.7344-6.4297"></path>
  <path d="m436.97 242.46c4.3477 1.3711 6.7578 6.0039 5.3867 10.348-1.3711 4.3477-6.0039 6.7578-10.348 5.3867-4.3477-1.3672-6.7578-6.0039-5.3867-10.348s6.0039-6.7578 10.348-5.3867"></path>
  <path d="m433.76 212.02c4.0703 2.0469 5.7109 7.0039 3.6641 11.074-2.0469 4.0703-7.0039 5.7148-11.074 3.668-4.0703-2.0469-5.7148-7.0039-3.668-11.078 2.0469-4.0703 7.0078-5.7109 11.078-3.6641"></path>
  <path d="m437.5 181.65c3.4141 3.0195 3.7305 8.2344 0.70703 11.645-3.0195 3.4102-8.2344 3.7305-11.645 0.70703-3.4102-3.0195-3.7266-8.2344-0.70703-11.645 3.0195-3.4102 8.2344-3.7266 11.645-0.70703"></path>
  <path d="m448.47 152.5c3.75 2.5898 4.6875 7.7266 2.0977 11.477-2.5898 3.7461-7.7266 4.6875-11.477 2.0977s-4.6875-7.7266-2.0977-11.477 7.7266-4.6875 11.477-2.0977"></path>
  <path d="m322.66 496.42c2.7617 3.625 2.0586 8.8008-1.5664 11.562-3.6289 2.7578-8.8047 2.0547-11.562-1.5703-2.7578-3.625-2.0586-8.8008 1.5703-11.562 3.625-2.7578 8.8008-2.0547 11.559 1.5703"></path>
  <path d="m294.87 500.67c3.1172 3.3203 2.957 8.543-0.36328 11.664-3.3203 3.1211-8.5391 2.957-11.66-0.36328-3.1211-3.3164-2.9609-8.5391 0.35938-11.66 3.3203-3.1211 8.543-2.957 11.664 0.35938"></path>
  <path d="m264.11 509.22c3.6094 2.7812 4.2852 7.9609 1.5039 11.57-2.7773 3.6133-7.957 4.2852-11.57 1.5078-3.6094-2.7812-4.2852-7.9609-1.5039-11.57 2.7773-3.6094 7.957-4.2852 11.57-1.5078"></path>
  <path d="m234.67 523.62c4.1992 1.7617 6.1797 6.5977 4.4141 10.797-1.7617 4.2031-6.5977 6.1797-10.797 4.418-4.2031-1.7617-6.1797-6.5977-4.418-10.797 1.7617-4.2031 6.5977-6.1797 10.801-4.418"></path>
  <path d="m214.98 547.04c3.9609 2.2539 5.3438 7.2891 3.0938 11.25-2.2539 3.9609-7.293 5.3438-11.25 3.0898-3.9609-2.2539-5.3477-7.2891-3.0938-11.25s7.2891-5.3438 11.25-3.0898"></path>
  <path d="m458.61 240.71 48.469 27.562c1.3008 0.75391 2.7305 1.0898 4.1367 1.0898 2.918 0 5.75-1.5312 7.3047-4.2422 2.2891-4.0312 0.88281-9.1523-3.1484-11.441l-48.469-27.562c-3.9453-2.2891-9.1719-0.90234-11.441 3.1484-2.3086 4.0352-0.88281 9.1562 3.1484 11.445z"></path>
  <path d="m343.09 556.52-48.449-27.543c-4.0078-2.2461-9.1523-0.85938-11.441 3.1484-2.2891 4.0078-0.88281 9.1523 3.1484 11.441l48.449 27.543c1.3008 0.73438 2.7305 1.1133 4.1367 1.1133 2.918 0 5.75-1.5312 7.3047-4.2617 2.2891-4.0117 0.88281-9.1523-3.1484-11.441z"></path>
  <path d="m341.41 586.6-71.793-40.828c-4.0078-2.2461-9.1523-0.85938-11.441 3.1289-2.2891 4.0312-0.88281 9.1719 3.1484 11.461l71.793 40.828c1.3008 0.73438 2.7305 1.1133 4.1367 1.1133 2.918 0 5.75-1.5312 7.3047-4.2422 2.2891-4.0508 0.88281-9.1719-3.1484-11.461z"></path>
  <path d="m316.41 603.41-48.449-27.562c-4.0078-2.2461-9.1523-0.88281-11.441 3.1484-2.2891 4.0078-0.88281 9.1523 3.1484 11.441l48.469 27.543c1.3008 0.73438 2.7305 1.1133 4.1367 1.1133 2.918 0 5.75-1.5312 7.3047-4.2617 2.293-4.0117 0.86328-9.1328-3.168-11.422z"></path>
  <path d="m444.02 393.53c1.3008 0.75391 2.75 1.0898 4.1562 1.0898 2.918 0 5.75-1.5312 7.3047-4.2422 2.2891-4.0312 0.88281-9.1523-3.1289-11.441l-60.879-34.637c-4.0312-2.2891-9.1523-0.88281-11.441 3.1484s-0.88281 9.1523 3.1484 11.441z"></path>
  <path d="m443.45 414.78-78.301-44.547c-4.0078-2.2891-9.1523-0.88281-11.441 3.1484-2.2891 4.0312-0.88281 9.1523 3.1484 11.441l78.32 44.547c1.3008 0.73437 2.7305 1.1133 4.1367 1.1133 2.918 0 5.75-1.5312 7.3047-4.2617 2.2891-4.0117 0.88281-9.1328-3.168-11.441z"></path>
  <path d="m417.19 440.72-60.879-34.637c-4.0312-2.2891-9.1523-0.85938-11.441 3.1484-2.2891 4.0312-0.88281 9.1523 3.1484 11.441l60.879 34.637c1.3008 0.73438 2.7305 1.1133 4.1367 1.1133 2.918 0 5.75-1.5312 7.3047-4.2422 2.2656-4.0273 0.88281-9.1523-3.1484-11.461z"></path>
 </g>

      </g>
     <g id="IconSvg_iconCarrier">
      <g xmlns="http://www.w3.org/2000/svg">
  <path d="m485.29 193.84 48.469 27.562c1.3008 0.75391 2.7305 1.0898 4.1367 1.0898 2.918 0 5.75-1.5312 7.3047-4.2422 2.2891-4.0312 0.88281-9.1523-3.1484-11.441l-48.469-27.562c-3.9453-2.2891-9.1523-0.88281-11.441 3.1484-2.3086 4.0117-0.90234 9.1367 3.1484 11.445z"></path>
  <path d="m460.27 210.63 71.773 40.828c1.3008 0.75391 2.75 1.0898 4.1562 1.0898 2.918 0 5.75-1.5312 7.3047-4.2422 2.2891-4.0312 0.88281-9.1523-3.1289-11.441l-71.773-40.828c-3.9883-2.2891-9.1719-0.88281-11.461 3.1484-2.2852 4.0352-0.87891 9.1562 3.1289 11.445z"></path>
  <path d="m593.08 239.01c-3.9453-2.2891-9.1719-0.88281-11.441 3.1484-28.172 49.543-124.5 50.695-125.47 50.719-4.3242 0.019532-106.97 1.1953-139.97 59.172-33 57.98 18.453 146.8 20.656 150.57 0.48438 0.82031 48.766 84.113 20.531 133.74-2.2891 4.0312-0.88281 9.1719 3.1484 11.461 1.3008 0.73438 2.7305 1.1133 4.1367 1.1133 2.918 0 5.75-1.5312 7.3047-4.2422 32.98-58-18.453-146.82-20.656-150.6-0.48437-0.82031-48.766-84.113-20.531-133.74 28.191-49.543 124.5-50.695 125.47-50.695h0.019532c3.8203-0.69141 106.87-1.0703 139.95-59.199 2.3125-4.0234 0.90625-9.168-3.1484-11.453z"></path>
  <path d="m378.16 491.2c2.7578 3.625 2.0586 8.8008-1.5703 11.559-3.625 2.7617-8.8008 2.0586-11.559-1.5664-2.7578-3.625-2.0586-8.8008 1.5664-11.562 3.6289-2.7578 8.8047-2.0547 11.562 1.5703"></path>
  <path d="m404.85 485.65c3.1211 3.3203 2.9609 8.5391-0.35937 11.66-3.3203 3.1211-8.5391 2.9609-11.66-0.35938-3.1211-3.3203-2.9609-8.5391 0.35938-11.66 3.3164-3.1211 8.5391-2.9609 11.66 0.35938"></path>
  <path d="m433.66 475.33c3.6094 2.7773 4.2852 7.957 1.5039 11.57-2.7773 3.6094-7.957 4.2812-11.57 1.5039-3.6094-2.7812-4.2812-7.9609-1.5039-11.57 2.7812-3.6094 7.9609-4.2852 11.57-1.5039"></path>
  <path d="m459.42 458.77c4.2031 1.7617 6.1797 6.5938 4.418 10.797-1.7617 4.2031-6.5977 6.1797-10.797 4.418-4.2031-1.7617-6.1797-6.5977-4.418-10.801 1.7617-4.1992 6.5977-6.1797 10.797-4.4141"></path>
  <path d="m480.89 436.24c3.9609 2.2539 5.3477 7.2891 3.0938 11.25-2.2539 3.9609-7.293 5.3438-11.25 3.0898-3.9609-2.25-5.3438-7.2891-3.0938-11.25 2.2539-3.9609 7.293-5.3438 11.25-3.0898"></path>
  <path d="m493.6 410.71c1.8047 4.1836-0.12109 9.0352-4.3047 10.84-4.1836 1.8047-9.0391-0.12109-10.844-4.3047-1.8047-4.1836 0.125-9.0391 4.3086-10.844 4.1836-1.8047 9.0352 0.125 10.84 4.3086"></path>
  <path d="m491.72 377.25c2.8164 3.582 2.1953 8.7656-1.3867 11.582-3.582 2.8164-8.7695 2.1953-11.586-1.3867-2.8125-3.582-2.1914-8.7695 1.3906-11.586 3.582-2.8125 8.7656-2.1914 11.582 1.3906"></path>
  <path d="m483.7 345.86c3.3516 3.0859 3.5664 8.3047 0.48047 11.656-3.0859 3.3516-8.3047 3.5664-11.656 0.48047-3.3516-3.0859-3.5664-8.3086-0.48047-11.656 3.0859-3.3516 8.3086-3.5664 11.656-0.48047"></path>
  <path d="m473.34 319.4c3.6523 2.7227 4.4102 7.8906 1.6875 11.543-2.7227 3.6523-7.8906 4.4102-11.547 1.6875-3.6523-2.7227-4.4062-7.8906-1.6836-11.547 2.7227-3.6523 7.8906-4.4062 11.543-1.6836"></path>
  <path d="m443.53 268.9c4.4648 0.91016 7.3438 5.2695 6.4297 9.7344-0.91016 4.4648-5.2695 7.3438-9.7344 6.4336-4.4648-0.91406-7.3438-5.2734-6.4297-9.7383 0.91016-4.4609 5.2695-7.3438 9.7344-6.4297"></path>
  <path d="m436.97 242.46c4.3477 1.3711 6.7578 6.0039 5.3867 10.348-1.3711 4.3477-6.0039 6.7578-10.348 5.3867-4.3477-1.3672-6.7578-6.0039-5.3867-10.348s6.0039-6.7578 10.348-5.3867"></path>
  <path d="m433.76 212.02c4.0703 2.0469 5.7109 7.0039 3.6641 11.074-2.0469 4.0703-7.0039 5.7148-11.074 3.668-4.0703-2.0469-5.7148-7.0039-3.668-11.078 2.0469-4.0703 7.0078-5.7109 11.078-3.6641"></path>
  <path d="m437.5 181.65c3.4141 3.0195 3.7305 8.2344 0.70703 11.645-3.0195 3.4102-8.2344 3.7305-11.645 0.70703-3.4102-3.0195-3.7266-8.2344-0.70703-11.645 3.0195-3.4102 8.2344-3.7266 11.645-0.70703"></path>
  <path d="m448.47 152.5c3.75 2.5898 4.6875 7.7266 2.0977 11.477-2.5898 3.7461-7.7266 4.6875-11.477 2.0977s-4.6875-7.7266-2.0977-11.477 7.7266-4.6875 11.477-2.0977"></path>
  <path d="m322.66 496.42c2.7617 3.625 2.0586 8.8008-1.5664 11.562-3.6289 2.7578-8.8047 2.0547-11.562-1.5703-2.7578-3.625-2.0586-8.8008 1.5703-11.562 3.625-2.7578 8.8008-2.0547 11.559 1.5703"></path>
  <path d="m294.87 500.67c3.1172 3.3203 2.957 8.543-0.36328 11.664-3.3203 3.1211-8.5391 2.957-11.66-0.36328-3.1211-3.3164-2.9609-8.5391 0.35938-11.66 3.3203-3.1211 8.543-2.957 11.664 0.35938"></path>
  <path d="m264.11 509.22c3.6094 2.7812 4.2852 7.9609 1.5039 11.57-2.7773 3.6133-7.957 4.2852-11.57 1.5078-3.6094-2.7812-4.2852-7.9609-1.5039-11.57 2.7773-3.6094 7.957-4.2852 11.57-1.5078"></path>
  <path d="m234.67 523.62c4.1992 1.7617 6.1797 6.5977 4.4141 10.797-1.7617 4.2031-6.5977 6.1797-10.797 4.418-4.2031-1.7617-6.1797-6.5977-4.418-10.797 1.7617-4.2031 6.5977-6.1797 10.801-4.418"></path>
  <path d="m214.98 547.04c3.9609 2.2539 5.3438 7.2891 3.0938 11.25-2.2539 3.9609-7.293 5.3438-11.25 3.0898-3.9609-2.2539-5.3477-7.2891-3.0938-11.25s7.2891-5.3438 11.25-3.0898"></path>
  <path d="m458.61 240.71 48.469 27.562c1.3008 0.75391 2.7305 1.0898 4.1367 1.0898 2.918 0 5.75-1.5312 7.3047-4.2422 2.2891-4.0312 0.88281-9.1523-3.1484-11.441l-48.469-27.562c-3.9453-2.2891-9.1719-0.90234-11.441 3.1484-2.3086 4.0352-0.88281 9.1562 3.1484 11.445z"></path>
  <path d="m343.09 556.52-48.449-27.543c-4.0078-2.2461-9.1523-0.85938-11.441 3.1484-2.2891 4.0078-0.88281 9.1523 3.1484 11.441l48.449 27.543c1.3008 0.73438 2.7305 1.1133 4.1367 1.1133 2.918 0 5.75-1.5312 7.3047-4.2617 2.2891-4.0117 0.88281-9.1523-3.1484-11.441z"></path>
  <path d="m341.41 586.6-71.793-40.828c-4.0078-2.2461-9.1523-0.85938-11.441 3.1289-2.2891 4.0312-0.88281 9.1719 3.1484 11.461l71.793 40.828c1.3008 0.73438 2.7305 1.1133 4.1367 1.1133 2.918 0 5.75-1.5312 7.3047-4.2422 2.2891-4.0508 0.88281-9.1719-3.1484-11.461z"></path>
  <path d="m316.41 603.41-48.449-27.562c-4.0078-2.2461-9.1523-0.88281-11.441 3.1484-2.2891 4.0078-0.88281 9.1523 3.1484 11.441l48.469 27.543c1.3008 0.73438 2.7305 1.1133 4.1367 1.1133 2.918 0 5.75-1.5312 7.3047-4.2617 2.293-4.0117 0.86328-9.1328-3.168-11.422z"></path>
  <path d="m444.02 393.53c1.3008 0.75391 2.75 1.0898 4.1562 1.0898 2.918 0 5.75-1.5312 7.3047-4.2422 2.2891-4.0312 0.88281-9.1523-3.1289-11.441l-60.879-34.637c-4.0312-2.2891-9.1523-0.88281-11.441 3.1484s-0.88281 9.1523 3.1484 11.441z"></path>
  <path d="m443.45 414.78-78.301-44.547c-4.0078-2.2891-9.1523-0.88281-11.441 3.1484-2.2891 4.0312-0.88281 9.1523 3.1484 11.441l78.32 44.547c1.3008 0.73437 2.7305 1.1133 4.1367 1.1133 2.918 0 5.75-1.5312 7.3047-4.2617 2.2891-4.0117 0.88281-9.1328-3.168-11.441z"></path>
  <path d="m417.19 440.72-60.879-34.637c-4.0312-2.2891-9.1523-0.85938-11.441 3.1484-2.2891 4.0312-0.88281 9.1523 3.1484 11.441l60.879 34.637c1.3008 0.73438 2.7305 1.1133 4.1367 1.1133 2.918 0 5.75-1.5312 7.3047-4.2422 2.2656-4.0273 0.88281-9.1523-3.1484-11.461z"></path>
 </g>

      </g>
      </svg>