<svg id="svg" fill="#ffffff" stroke="#ffffff" width="200" height="200" version="1.1" viewBox="144 144 512 512" xmlns="http://www.w3.org/2000/svg">
    <g id="IconSvg_bgCarrier" stroke-width="0"></g>
    <g id="IconSvg_tracerCarrier" stroke-linecap="round" stroke-linejoin="round" stroke="#CCCCCC" stroke-width="0">
      <path xmlns="http://www.w3.org/2000/svg" d="m605.95 464.57-80.152-80.156c-1.4805-1.4805-3.4805-2.2969-5.5742-2.2969h-72.816c-0.92969-11.652-3.668-22.371-8.1094-31.395l83.852-33.582c1.793-0.72266 3.2578-2.0625 4.125-3.793l40.07-80.152c1.9375-3.8906 0.36328-8.6133-3.5273-10.562-3.8711-1.9219-8.5977-0.36328-10.562 3.5273l-38.73 77.477-84.199 33.707c-1.8125-2.0781-3.6836-4-5.6992-5.6836 13.617-6.9258 23.316-18.973 23.316-31.867 0-17.336-6.1562-39.281-16.344-55.48l15.508-31.188c1.5117-3.0234 0.92969-6.6758-1.4805-9.0703l-20.043-20.043c-3.0703-3.0703-8.0625-3.0703-11.133 0-3.0703 3.0703-3.0703 8.0625 0 11.133l16.059 16.043-9.8242 19.758c-6.1641-5.625-13.125-9.1328-20.68-9.1328-7.5586 0-14.516 3.5273-20.688 9.1641l-9.8242-19.758 16.059-16.043c3.0703-3.0703 3.0703-8.0625 0-11.133-3.0703-3.0703-8.0625-3.0703-11.133 0l-20.043 20.043c-2.3945 2.3945-2.9766 6.0469-1.4805 9.0703l15.508 31.188c-10.172 16.199-16.344 38.133-16.344 55.48 0 12.879 9.6992 24.922 23.316 31.867-2.0156 1.6836-3.8906 3.6055-5.6992 5.6836l-84.195-33.742-38.73-77.477c-1.9531-3.8867-6.6445-5.4453-10.562-3.5273-3.8906 1.9531-5.4648 6.6758-3.5273 10.566l40.07 80.152c0.86719 1.7148 2.3125 3.0703 4.125 3.793l83.852 33.582c-4.4414 9.0195-7.1953 19.727-8.1094 31.395h-72.832c-2.0938 0-4.0938 0.83594-5.5742 2.2969l-80.152 80.152c-3.0703 3.0703-3.0703 8.0625 0 11.133 1.543 1.543 3.5586 2.2969 5.5742 2.2969s4.0312-0.76953 5.5742-2.2969l77.84-77.84h69.559c0.92969 11.652 3.668 22.371 8.125 31.395l-83.859 33.566c-2.9922 1.1953-4.9453 4.0938-4.9453 7.3047v58.254l-39.246 78.5c-1.9375 3.8906-0.36328 8.6133 3.5273 10.562 1.1328 0.56641 2.332 0.83594 3.5273 0.83594 2.8828 0 5.6523-1.5898 7.0391-4.3438l40.07-80.152c0.53516-1.0859 0.83594-2.2969 0.83594-3.5273v-54.789l82.027-32.844c1.4492 1.6836 2.8984 3.3359 4.5039 4.7695-24.703 10.203-42.148 34.48-42.148 62.82 0 37 28.703 108.07 67.984 108.07 39.273 0 67.957-71.066 67.957-108.07 0-28.34-17.461-52.633-42.148-62.82 1.5898-1.4336 3.0391-3.0859 4.5039-4.7695l82.027 32.844v54.789c0 1.2266 0.30078 2.4258 0.83594 3.5273l40.07 80.152c1.3867 2.7539 4.1719 4.3438 7.0391 4.3438 1.1797 0 2.3789-0.26953 3.5273-0.83594 3.8906-1.9531 5.4648-6.6758 3.5273-10.562l-39.234-78.484v-58.254c0-3.2266-1.9531-6.1094-4.9453-7.3047l-83.852-33.582c4.4414-9.0039 7.1953-19.727 8.125-31.395h69.559l77.84 77.84c1.543 1.543 3.5586 2.2969 5.5742 2.2969 2.0156 0 4.0312-0.76953 5.5742-2.2969 3.0117-3.0703 3.0117-8.0586-0.058594-11.129zm-238.16-164.76c0-25.727 16.656-62.27 32.211-62.27 15.555 0 32.211 36.543 32.211 62.27 0 8.9258-13.523 22.184-32.211 22.184s-32.211-13.242-32.211-22.184zm84.453 210.4c0 33.094-26.34 92.324-52.238 92.324-25.902 0-52.242-59.23-52.242-92.324 0-28.812 23.426-52.238 52.238-52.238s52.242 23.426 52.242 52.238zm-84.453-120.22c0-28.324 14.754-52.238 32.211-52.238 17.461 0 32.211 23.93 32.211 52.238s-14.754 52.238-32.211 52.238c-17.457 0-32.211-23.93-32.211-52.238z"></path>

      </g>
     <g id="IconSvg_iconCarrier">
      <path xmlns="http://www.w3.org/2000/svg" d="m605.95 464.57-80.152-80.156c-1.4805-1.4805-3.4805-2.2969-5.5742-2.2969h-72.816c-0.92969-11.652-3.668-22.371-8.1094-31.395l83.852-33.582c1.793-0.72266 3.2578-2.0625 4.125-3.793l40.07-80.152c1.9375-3.8906 0.36328-8.6133-3.5273-10.562-3.8711-1.9219-8.5977-0.36328-10.562 3.5273l-38.73 77.477-84.199 33.707c-1.8125-2.0781-3.6836-4-5.6992-5.6836 13.617-6.9258 23.316-18.973 23.316-31.867 0-17.336-6.1562-39.281-16.344-55.48l15.508-31.188c1.5117-3.0234 0.92969-6.6758-1.4805-9.0703l-20.043-20.043c-3.0703-3.0703-8.0625-3.0703-11.133 0-3.0703 3.0703-3.0703 8.0625 0 11.133l16.059 16.043-9.8242 19.758c-6.1641-5.625-13.125-9.1328-20.68-9.1328-7.5586 0-14.516 3.5273-20.688 9.1641l-9.8242-19.758 16.059-16.043c3.0703-3.0703 3.0703-8.0625 0-11.133-3.0703-3.0703-8.0625-3.0703-11.133 0l-20.043 20.043c-2.3945 2.3945-2.9766 6.0469-1.4805 9.0703l15.508 31.188c-10.172 16.199-16.344 38.133-16.344 55.48 0 12.879 9.6992 24.922 23.316 31.867-2.0156 1.6836-3.8906 3.6055-5.6992 5.6836l-84.195-33.742-38.73-77.477c-1.9531-3.8867-6.6445-5.4453-10.562-3.5273-3.8906 1.9531-5.4648 6.6758-3.5273 10.566l40.07 80.152c0.86719 1.7148 2.3125 3.0703 4.125 3.793l83.852 33.582c-4.4414 9.0195-7.1953 19.727-8.1094 31.395h-72.832c-2.0938 0-4.0938 0.83594-5.5742 2.2969l-80.152 80.152c-3.0703 3.0703-3.0703 8.0625 0 11.133 1.543 1.543 3.5586 2.2969 5.5742 2.2969s4.0312-0.76953 5.5742-2.2969l77.84-77.84h69.559c0.92969 11.652 3.668 22.371 8.125 31.395l-83.859 33.566c-2.9922 1.1953-4.9453 4.0938-4.9453 7.3047v58.254l-39.246 78.5c-1.9375 3.8906-0.36328 8.6133 3.5273 10.562 1.1328 0.56641 2.332 0.83594 3.5273 0.83594 2.8828 0 5.6523-1.5898 7.0391-4.3438l40.07-80.152c0.53516-1.0859 0.83594-2.2969 0.83594-3.5273v-54.789l82.027-32.844c1.4492 1.6836 2.8984 3.3359 4.5039 4.7695-24.703 10.203-42.148 34.48-42.148 62.82 0 37 28.703 108.07 67.984 108.07 39.273 0 67.957-71.066 67.957-108.07 0-28.34-17.461-52.633-42.148-62.82 1.5898-1.4336 3.0391-3.0859 4.5039-4.7695l82.027 32.844v54.789c0 1.2266 0.30078 2.4258 0.83594 3.5273l40.07 80.152c1.3867 2.7539 4.1719 4.3438 7.0391 4.3438 1.1797 0 2.3789-0.26953 3.5273-0.83594 3.8906-1.9531 5.4648-6.6758 3.5273-10.562l-39.234-78.484v-58.254c0-3.2266-1.9531-6.1094-4.9453-7.3047l-83.852-33.582c4.4414-9.0039 7.1953-19.727 8.125-31.395h69.559l77.84 77.84c1.543 1.543 3.5586 2.2969 5.5742 2.2969 2.0156 0 4.0312-0.76953 5.5742-2.2969 3.0117-3.0703 3.0117-8.0586-0.058594-11.129zm-238.16-164.76c0-25.727 16.656-62.27 32.211-62.27 15.555 0 32.211 36.543 32.211 62.27 0 8.9258-13.523 22.184-32.211 22.184s-32.211-13.242-32.211-22.184zm84.453 210.4c0 33.094-26.34 92.324-52.238 92.324-25.902 0-52.242-59.23-52.242-92.324 0-28.812 23.426-52.238 52.238-52.238s52.242 23.426 52.242 52.238zm-84.453-120.22c0-28.324 14.754-52.238 32.211-52.238 17.461 0 32.211 23.93 32.211 52.238s-14.754 52.238-32.211 52.238c-17.457 0-32.211-23.93-32.211-52.238z"></path>

      </g>
      </svg>