<svg id="svg" fill="#ffffff" stroke="#ffffff" width="200" height="200" version="1.1" viewBox="144 144 512 512" xmlns="http://www.w3.org/2000/svg">
    <g id="IconSvg_bgCarrier" stroke-width="0"></g>
    <g id="IconSvg_tracerCarrier" stroke-linecap="round" stroke-linejoin="round" stroke="#CCCCCC" stroke-width="0">
      <path xmlns="http://www.w3.org/2000/svg" d="m527.78 279.12c-6.1914-65.129-61.027-116.08-127.78-116.08-66.754 0-121.59 50.953-127.78 116.08-49.703 4.5859-88.621 46.371-88.621 97.266 0 53.961 43.742 97.703 97.703 97.703h35.18l45.43 45.43v81.211c0 14.027-7.9883 26.168-19.648 32.184-0.65625 0.37109-1.1016 1.0703-1.1016 1.8789 0 1.1914 0.96484 2.1602 2.1602 2.1602h113.41c1.1914 0 2.1602-0.96484 2.1602-2.1602 0-0.78516-0.42969-1.457-1.0547-1.832-11.711-6-19.746-18.164-19.746-32.23l-0.007812-81.215 45.43-45.43h35.18c53.961 0 97.703-43.742 97.703-97.703-0.003906-50.891-38.926-92.676-88.625-97.262zm-127.78 231.13-36.164-36.164h72.328z"></path>

      </g>
     <g id="IconSvg_iconCarrier">
      <path xmlns="http://www.w3.org/2000/svg" d="m527.78 279.12c-6.1914-65.129-61.027-116.08-127.78-116.08-66.754 0-121.59 50.953-127.78 116.08-49.703 4.5859-88.621 46.371-88.621 97.266 0 53.961 43.742 97.703 97.703 97.703h35.18l45.43 45.43v81.211c0 14.027-7.9883 26.168-19.648 32.184-0.65625 0.37109-1.1016 1.0703-1.1016 1.8789 0 1.1914 0.96484 2.1602 2.1602 2.1602h113.41c1.1914 0 2.1602-0.96484 2.1602-2.1602 0-0.78516-0.42969-1.457-1.0547-1.832-11.711-6-19.746-18.164-19.746-32.23l-0.007812-81.215 45.43-45.43h35.18c53.961 0 97.703-43.742 97.703-97.703-0.003906-50.891-38.926-92.676-88.625-97.262zm-127.78 231.13-36.164-36.164h72.328z"></path>

      </g>
      </svg>