<?xml version="1.0" encoding="iso-8859-1"?>
<!-- Uploaded to: SVG Repo, www.svgrepo.com, Generator: SVG Repo Mixer Tools -->
<svg height="800px" width="800px" version="1.1" id="Layer_1" xmlns="http://www.w3.org/2000/svg" xmlns:xlink="http://www.w3.org/1999/xlink" 
	 viewBox="0 0 503.467 503.467" xml:space="preserve">
<g transform="translate(3 1)">
	<path style="fill:#E4F2DE;" d="M249.151,481.134h-63.147c9.387-8.533,20.48-26.453,20.48-59.733
		c0-59.733-8.533-110.933-8.533-110.933s-3.413-17.067-9.387-27.307c26.453-2.56,48.64-18.773,60.587-40.96
		c11.947,22.187,33.28,38.4,59.733,40.96c-5.973,12.8-8.533,27.307-8.533,27.307s-8.533,51.2-8.533,110.933
		c0,33.28,11.093,51.2,20.48,59.733H249.151z"/>
	<path style="fill:#AE938D;" d="M445.418,498.2h-93.867c0,0-13.653,0-25.6-8.533h-0.853c0-23.893,25.6-34.133,42.667-34.133
		c16.213,0,29.013,8.533,36.693,21.333c4.267-2.56,9.387-4.267,14.507-4.267C434.324,472.6,445.418,483.694,445.418,498.2z
		 M146.751,498.2H52.884c0-14.507,11.093-25.6,25.6-25.6c5.12,0,10.24,1.707,14.507,4.267c7.68-12.8,21.333-21.333,36.693-21.333
		c17.067,0,42.667,10.24,42.667,34.133C159.551,498.2,146.751,498.2,146.751,498.2z M122.858,256.707
		c-11.093,11.947-26.453,19.627-44.373,19.627c-33.28,0-59.733-26.453-59.733-59.733c0-29.013,20.48-52.907,47.787-58.88
		c-8.533-12.8-13.653-27.307-13.653-43.52c0-42.667,34.133-76.8,76.8-76.8c14.507,0,28.16,4.267,40.107,11.093V47.64
		c4.267-17.92,15.36-24.747,15.36-24.747c17.92-12.8,40.107-20.48,64-20.48s46.08,7.68,64,20.48c0,0,11.093,8.533,16.213,23.893
		v0.853c11.947-6.827,24.747-11.093,39.253-11.093c42.667,0,76.8,34.133,76.8,76.8c0,16.213-5.12,31.573-13.653,43.52
		c27.307,5.12,47.787,29.867,47.787,58.88c0,33.28-26.453,59.733-59.733,59.733c-17.92,0-34.987-8.533-45.227-21.333L372.884,255
		c-5.973,11.947-21.333,19.627-21.333,19.627c-10.24,5.12-22.187,7.68-34.133,7.68c-2.56,0-5.973,0-8.533-0.853
		c-26.453-2.56-48.64-18.773-59.733-40.96c-11.947,22.187-34.133,38.4-60.587,40.96c-2.56,0-5.12,0-7.68,0
		c-11.947,0-23.893-2.56-34.133-7.68v-0.853C146.751,275.48,132.244,267.8,122.858,256.707L122.858,256.707z"/>
</g>
<path style="fill:#51565F;" d="M448.418,503.467c-2.56,0-4.267-1.707-4.267-4.267c0-11.947-9.387-21.333-21.333-21.333
	c-4.267,0-8.533,0.853-11.947,3.413c-0.853,0.853-2.56,0.853-3.413,0.853c-0.853,0-2.56-0.853-2.56-1.707
	c-6.827-11.947-19.627-19.627-33.28-19.627c-15.36,0-38.4,9.387-38.4,29.867c0,1.707-0.853,2.56-1.707,3.413
	c-0.853,0.853-2.56,0.853-3.413,0.853c-1.707,0-37.547-10.24-37.547-72.533c0-59.733,8.533-110.933,8.533-111.787
	c0-2.56,2.56-4.267,5.12-3.413c2.56,0,4.267,2.56,3.413,5.12c0,0.853-8.533,51.2-8.533,110.08c0,41.813,17.067,57.173,26.453,62.293
	c4.267-22.187,29.013-32.427,46.08-32.427c15.36,0,29.867,7.68,38.4,19.627c4.267-1.707,8.533-2.56,12.8-2.56
	c16.213,0,29.867,13.653,29.867,29.867C452.684,501.76,450.978,503.467,448.418,503.467z M55.884,503.467
	c-2.56,0-4.267-1.707-4.267-4.267c0-16.213,13.653-29.867,29.867-29.867c4.267,0,8.533,0.853,12.8,2.56
	c8.533-12.8,23.04-19.627,38.4-19.627c17.067,0,42.667,10.24,46.08,32.427c8.533-5.12,26.453-19.627,26.453-62.293
	c0-58.88-8.533-110.08-8.533-110.08c0-2.56,0.853-4.267,3.413-5.12c2.56,0,4.267,0.853,5.12,3.413
	c0,0.853,8.533,52.053,8.533,111.787c0,62.293-35.84,71.68-37.547,72.533c-0.853,0-2.56,0-3.413-0.853
	c-0.853-0.853-1.707-1.707-1.707-3.413c0-20.48-23.04-29.867-38.4-29.867c-13.653,0-26.453,6.827-33.28,19.627
	c-0.853,0.853-1.707,1.707-2.56,1.707c-0.853,0-2.56,0-3.413-0.853c-3.413-2.56-7.68-3.413-11.947-3.413
	c-11.947,0-21.333,9.387-21.333,21.333C60.151,501.76,58.444,503.467,55.884,503.467z M252.151,486.4
	c-2.56,0-4.267-1.707-4.267-4.267V294.4c0-2.56,1.707-4.267,4.267-4.267s4.267,1.707,4.267,4.267v187.733
	C256.418,484.694,254.711,486.4,252.151,486.4z M320.418,289.28c-28.16,0-53.76-14.507-68.267-37.547
	c-14.507,23.04-40.107,37.547-68.267,37.547c-12.8,0-24.747-2.56-35.84-8.533c-1.707-0.853-2.56-3.413-1.707-5.973
	c0.853-1.707,3.413-2.56,5.973-1.707c10.24,5.12,21.333,7.68,32.427,7.68c27.307,0,52.053-15.36,64.853-39.253
	c1.707-2.56,5.973-2.56,7.68,0c12.8,23.893,37.547,39.253,64.853,39.253c11.093,0,22.187-2.56,32.427-7.68
	c1.707-0.853,4.267,0,5.973,1.707c0.853,1.707,0,4.267-1.707,5.973C345.164,286.72,333.218,289.28,320.418,289.28z M422.818,281.6
	c-28.16,0-52.907-17.92-61.44-45.227c-0.853-2.56,0.853-4.267,2.56-5.12c2.56-0.853,4.267,0.853,5.12,2.56
	c6.827,23.893,28.16,39.253,52.907,39.253c30.72,0,55.467-24.747,55.467-55.467c0-26.453-18.773-49.493-44.373-54.613
	c-1.707,0-2.56-0.853-3.413-2.56c-0.853-1.707,0-2.56,0.853-4.267c8.533-11.947,12.8-26.453,12.8-41.813
	c0-40.107-32.427-72.533-72.533-72.533c-24.747,0-46.933,11.947-60.587,32.427c-1.707,1.707-4.267,2.56-5.973,0.853
	c-1.707-1.707-2.56-4.267-0.853-5.973c15.36-23.04,40.107-35.84,67.413-35.84c44.373,0,81.067,36.693,81.067,81.067
	c0,14.507-4.267,29.013-11.093,40.96c26.453,7.68,45.227,33.28,45.227,61.44C486.818,252.587,457.804,281.6,422.818,281.6z
	 M81.484,281.6c-34.987,0-64-29.013-64-64c0-28.16,18.773-52.907,45.227-61.44c-7.68-12.8-11.093-26.453-11.093-40.96
	c0-44.373,36.693-81.067,81.067-81.067c27.307,0,52.053,13.653,67.413,35.84c1.707,1.707,0.853,4.267-0.853,5.973
	c-1.707,1.707-4.267,0.853-5.973-0.853c-13.653-20.48-35.84-32.427-60.587-32.427c-40.107,0-72.533,32.427-72.533,72.533
	c0,14.507,4.267,29.013,12.8,41.813c0.853,0.853,0.853,2.56,0.853,4.267s-1.707,2.56-3.413,2.56
	c-25.6,5.12-44.373,28.16-44.373,54.613c0,30.72,24.747,55.467,55.467,55.467c24.747,0,46.08-16.213,52.907-40.107
	c0.853-2.56,3.413-3.413,5.12-2.56c2.56,0.853,3.413,3.413,2.56,5.12C135.244,262.827,109.644,281.6,81.484,281.6z M316.151,29.014
	c-0.853,0-1.707,0-2.56-0.853c-17.92-12.8-39.253-19.627-61.44-19.627s-43.52,6.827-61.44,19.627
	c-1.707,1.707-4.267,0.853-5.973-0.853c-1.707-1.707-0.853-4.267,0.853-5.973C205.218,7.68,228.258,0,252.151,0
	s46.933,6.827,66.56,21.333c1.707,1.707,2.56,4.267,0.853,5.973C318.711,28.16,317.004,29.014,316.151,29.014z"/>
</svg>