<svg id="svg" fill="#ffffff" stroke="#ffffff" width="200" height="200" version="1.1" viewBox="144 144 512 512" xmlns="http://www.w3.org/2000/svg">
    <g id="IconSvg_bgCarrier" stroke-width="0"></g>
    <g id="IconSvg_tracerCarrier" stroke-linecap="round" stroke-linejoin="round" stroke="#CCCCCC" stroke-width="0">
      <path xmlns="http://www.w3.org/2000/svg" d="m602.2 555.34 25.926-189.98c5.9453-8.0938 8.6719-18.105 7.6523-28.094-1.0156-9.9883-5.7109-19.246-13.164-25.973-7.4531-6.7266-17.141-10.445-27.184-10.434-7.7188 0.027344-15.273 2.2461-21.777 6.4023l-134.66-90.004c1.0312-3.5469 1.5625-7.2188 1.5742-10.914 0-14.496-7.7344-27.887-20.285-35.133s-28.016-7.2461-40.566 0c-12.551 7.2461-20.285 20.637-20.285 35.133 0.003906 3.8008 0.55078 7.582 1.6289 11.23l-128.47 98.82c-9.6953-8.9609-23.152-12.633-36.059-9.8398-12.902 2.7891-23.637 11.695-28.766 23.859-5.1289 12.168-4.0078 26.07 3.0039 37.258s19.035 18.254 32.223 18.941l73.891 68.645-54.738 99.711h0.003906c-4.7305-1.8633-9.7695-2.8086-14.852-2.7812-10.168-0.023437-19.969 3.7695-27.469 10.633-7.5039 6.8594-12.156 16.285-13.039 26.41-0.88281 10.129 2.0703 20.215 8.2695 28.27 6.2031 8.0547 15.199 13.488 25.215 15.227 10.016 1.7344 20.32-0.35156 28.871-5.8477 8.5469-5.5 14.723-14.004 17.301-23.84h149.3c2.8906 13.145 12.113 23.996 24.621 28.961 12.508 4.9648 26.66 3.3984 37.777-4.1836 11.117-7.582 17.746-20.188 17.688-33.645 0.007813-3.1133-0.35938-6.2148-1.1016-9.2383l53.898-88.324 34.059 75.887c-4.6641 6.7383-7.1562 14.742-7.1367 22.934-0.011719 10.418 3.9883 20.441 11.168 27.992 7.1758 7.5469 16.984 12.047 27.391 12.562s20.609-2.9922 28.5-9.793c7.8906-6.8047 12.859-16.383 13.879-26.75 1.0195-10.367-1.9844-20.73-8.3984-28.941-6.4102-8.2109-15.738-13.641-26.043-15.164zm23.461-213.91c0 7.9766-3.168 15.625-8.8086 21.266-5.6406 5.6367-13.289 8.8047-21.262 8.8047-7.9766 0-15.625-3.168-21.266-8.8047-5.6406-5.6406-8.8086-13.289-8.8086-21.266 0-7.9727 3.168-15.625 8.8086-21.262 5.6406-5.6406 13.289-8.8086 21.266-8.8086 7.9688 0.015625 15.609 3.1875 21.246 8.8242 5.6367 5.6367 8.8086 13.277 8.8242 21.246zm-38.781 39.57-56.891 93.152-32.066-71.059 68.645-33.273v0.003907c5.4922 5.6016 12.492 9.4844 20.152 11.176zm-21.359-66.648h-0.003907c-5.6797 6.2812-9.2461 14.191-10.188 22.613-0.94141 8.418 0.78906 16.918 4.9414 24.305l-66.648 32.223-69.695-154.5c4.3672-3.2188 8.0586-7.2656 10.863-11.91zm-118.29 101.65c-2.3398-11.719-9.7383-21.809-20.211-27.562-10.473-5.7578-22.957-6.5977-34.105-2.2969-11.148 4.3047-19.832 13.312-23.723 24.613l-44.977-19.629 78.984-144.43c3.9414-0.30078 7.8125-1.1836 11.492-2.625l69.273 153.98zm-38.309 147.57-118.87-110.21 28.918-52.797 47.969 20.992v2.7812h-0.003906c0.09375 10.668 4.3906 20.871 11.953 28.395 7.5625 7.5234 17.785 11.766 28.457 11.809 1.8789-0.007812 3.7539-0.14844 5.6133-0.42188l14.066 90.477c-6.6875 1.4414-12.91 4.5273-18.105 8.9727zm-1.5742-109.52c-7.9844 0.011718-15.645-3.1484-21.293-8.7852-5.6523-5.6367-8.8281-13.289-8.832-21.27s3.1641-15.637 8.8086-21.281c5.6406-5.6445 13.297-8.8125 21.281-8.8086 7.9805 0.003906 15.633 3.1836 21.27 8.832 5.6367 5.6523 8.7969 13.312 8.7812 21.293-0.011719 7.957-3.1797 15.582-8.8047 21.211-5.6289 5.625-13.254 8.793-21.211 8.8086zm-7.3477-277.78c7.9727 0 15.621 3.168 21.262 8.8047 5.6406 5.6406 8.8086 13.289 8.8086 21.266 0 7.9727-3.168 15.625-8.8086 21.262-5.6406 5.6406-13.289 8.8086-21.262 8.8086-7.9766 0-15.625-3.168-21.266-8.8086-5.6406-5.6367-8.8086-13.289-8.8086-21.262 0.015625-7.9727 3.1875-15.613 8.8242-21.25 5.6367-5.6367 13.277-8.8086 21.25-8.8203zm-8.3984 69.691-77.199 140.91-70.008-30.543c2.7812-10.902 0.87891-22.473-5.2461-31.91l125.95-96.984-0.003906 0.003906c5.8828 9.5859 15.48 16.293 26.504 18.523zm-216.48 100.18c0-7.9727 3.168-15.621 8.8086-21.262 5.6367-5.6406 13.289-8.8086 21.262-8.8086 7.9766 0 15.625 3.168 21.266 8.8086 5.6367 5.6406 8.8047 13.289 8.8047 21.262 0 7.9766-3.168 15.625-8.8047 21.266-5.6406 5.6406-13.289 8.8086-21.266 8.8086-7.9727 0-15.625-3.168-21.262-8.8086-5.6406-5.6406-8.8086-13.289-8.8086-21.266zm41.617 38.887v0.003907c10.043-3.043 18.535-9.8242 23.719-18.945l68.855 30.02-27.184 49.645zm68.223 77.617 116.93 108.74c-4.2656 6.1992-6.7031 13.473-7.0312 20.992h-147.05c-0.066407-12.793-6.1758-24.797-16.477-32.379zm-77.668 160.23c-7.9805 0.011719-15.637-3.1445-21.285-8.7773-5.6523-5.6328-8.832-13.281-8.8398-21.262-0.007813-7.9766 3.1523-15.633 8.7891-21.277 5.6367-5.6484 13.285-8.8203 21.266-8.8281 7.9766-0.003906 15.629 3.1641 21.273 8.8008 5.6445 5.6406 8.8125 13.293 8.8125 21.273-0.011719 7.9609-3.1797 15.594-8.8047 21.227-5.625 5.6367-13.25 8.8164-21.211 8.8438zm228.03 1.4688h-0.003906c-7.9727 0.011719-15.621-3.1406-21.27-8.7656-5.6523-5.625-8.8359-13.262-8.8516-21.234-0.019531-7.9727 3.1289-15.629 8.75-21.277 5.625-5.6523 13.262-8.8438 21.234-8.8633 7.9688-0.023438 15.625 3.1172 21.281 8.7383 5.6562 5.6172 8.8477 13.254 8.875 21.227 0.027343 7.9844-3.1211 15.652-8.75 21.312-5.6328 5.6602-13.285 8.8477-21.27 8.8633zm34.477-51.168c-6.9688-11.297-19.023-18.473-32.273-19.207l-14.383-92.629c6.7969-2.8945 12.672-7.582 17-13.566 4.3281-5.9805 6.9414-13.031 7.5625-20.387l40.777-19.734 34.898 77.355zm128.68-191.34c6.1719-0.36328 12.176-2.1602 17.531-5.2461l-24.352 178.54c-7.7109 0.92578-14.996 4.0391-20.992 8.9766l-35.426-78.355zm-2.2031 243.82c-7.9805 0.011719-15.641-3.1484-21.289-8.7852-5.6523-5.6367-8.8281-13.289-8.832-21.27-0.007813-7.9805 3.1641-15.637 8.8047-21.281 5.6445-5.6445 13.301-8.8125 21.281-8.8086 7.9844 0.007813 15.633 3.1836 21.273 8.832 5.6367 5.6523 8.7969 13.312 8.7812 21.293-0.015625 7.957-3.1797 15.586-8.8086 21.211-5.625 5.625-13.254 8.793-21.211 8.8086z"></path>

      </g>
     <g id="IconSvg_iconCarrier">
      <path xmlns="http://www.w3.org/2000/svg" d="m602.2 555.34 25.926-189.98c5.9453-8.0938 8.6719-18.105 7.6523-28.094-1.0156-9.9883-5.7109-19.246-13.164-25.973-7.4531-6.7266-17.141-10.445-27.184-10.434-7.7188 0.027344-15.273 2.2461-21.777 6.4023l-134.66-90.004c1.0312-3.5469 1.5625-7.2188 1.5742-10.914 0-14.496-7.7344-27.887-20.285-35.133s-28.016-7.2461-40.566 0c-12.551 7.2461-20.285 20.637-20.285 35.133 0.003906 3.8008 0.55078 7.582 1.6289 11.23l-128.47 98.82c-9.6953-8.9609-23.152-12.633-36.059-9.8398-12.902 2.7891-23.637 11.695-28.766 23.859-5.1289 12.168-4.0078 26.07 3.0039 37.258s19.035 18.254 32.223 18.941l73.891 68.645-54.738 99.711h0.003906c-4.7305-1.8633-9.7695-2.8086-14.852-2.7812-10.168-0.023437-19.969 3.7695-27.469 10.633-7.5039 6.8594-12.156 16.285-13.039 26.41-0.88281 10.129 2.0703 20.215 8.2695 28.27 6.2031 8.0547 15.199 13.488 25.215 15.227 10.016 1.7344 20.32-0.35156 28.871-5.8477 8.5469-5.5 14.723-14.004 17.301-23.84h149.3c2.8906 13.145 12.113 23.996 24.621 28.961 12.508 4.9648 26.66 3.3984 37.777-4.1836 11.117-7.582 17.746-20.188 17.688-33.645 0.007813-3.1133-0.35938-6.2148-1.1016-9.2383l53.898-88.324 34.059 75.887c-4.6641 6.7383-7.1562 14.742-7.1367 22.934-0.011719 10.418 3.9883 20.441 11.168 27.992 7.1758 7.5469 16.984 12.047 27.391 12.562s20.609-2.9922 28.5-9.793c7.8906-6.8047 12.859-16.383 13.879-26.75 1.0195-10.367-1.9844-20.73-8.3984-28.941-6.4102-8.2109-15.738-13.641-26.043-15.164zm23.461-213.91c0 7.9766-3.168 15.625-8.8086 21.266-5.6406 5.6367-13.289 8.8047-21.262 8.8047-7.9766 0-15.625-3.168-21.266-8.8047-5.6406-5.6406-8.8086-13.289-8.8086-21.266 0-7.9727 3.168-15.625 8.8086-21.262 5.6406-5.6406 13.289-8.8086 21.266-8.8086 7.9688 0.015625 15.609 3.1875 21.246 8.8242 5.6367 5.6367 8.8086 13.277 8.8242 21.246zm-38.781 39.57-56.891 93.152-32.066-71.059 68.645-33.273v0.003907c5.4922 5.6016 12.492 9.4844 20.152 11.176zm-21.359-66.648h-0.003907c-5.6797 6.2812-9.2461 14.191-10.188 22.613-0.94141 8.418 0.78906 16.918 4.9414 24.305l-66.648 32.223-69.695-154.5c4.3672-3.2188 8.0586-7.2656 10.863-11.91zm-118.29 101.65c-2.3398-11.719-9.7383-21.809-20.211-27.562-10.473-5.7578-22.957-6.5977-34.105-2.2969-11.148 4.3047-19.832 13.312-23.723 24.613l-44.977-19.629 78.984-144.43c3.9414-0.30078 7.8125-1.1836 11.492-2.625l69.273 153.98zm-38.309 147.57-118.87-110.21 28.918-52.797 47.969 20.992v2.7812h-0.003906c0.09375 10.668 4.3906 20.871 11.953 28.395 7.5625 7.5234 17.785 11.766 28.457 11.809 1.8789-0.007812 3.7539-0.14844 5.6133-0.42188l14.066 90.477c-6.6875 1.4414-12.91 4.5273-18.105 8.9727zm-1.5742-109.52c-7.9844 0.011718-15.645-3.1484-21.293-8.7852-5.6523-5.6367-8.8281-13.289-8.832-21.27s3.1641-15.637 8.8086-21.281c5.6406-5.6445 13.297-8.8125 21.281-8.8086 7.9805 0.003906 15.633 3.1836 21.27 8.832 5.6367 5.6523 8.7969 13.312 8.7812 21.293-0.011719 7.957-3.1797 15.582-8.8047 21.211-5.6289 5.625-13.254 8.793-21.211 8.8086zm-7.3477-277.78c7.9727 0 15.621 3.168 21.262 8.8047 5.6406 5.6406 8.8086 13.289 8.8086 21.266 0 7.9727-3.168 15.625-8.8086 21.262-5.6406 5.6406-13.289 8.8086-21.262 8.8086-7.9766 0-15.625-3.168-21.266-8.8086-5.6406-5.6367-8.8086-13.289-8.8086-21.262 0.015625-7.9727 3.1875-15.613 8.8242-21.25 5.6367-5.6367 13.277-8.8086 21.25-8.8203zm-8.3984 69.691-77.199 140.91-70.008-30.543c2.7812-10.902 0.87891-22.473-5.2461-31.91l125.95-96.984-0.003906 0.003906c5.8828 9.5859 15.48 16.293 26.504 18.523zm-216.48 100.18c0-7.9727 3.168-15.621 8.8086-21.262 5.6367-5.6406 13.289-8.8086 21.262-8.8086 7.9766 0 15.625 3.168 21.266 8.8086 5.6367 5.6406 8.8047 13.289 8.8047 21.262 0 7.9766-3.168 15.625-8.8047 21.266-5.6406 5.6406-13.289 8.8086-21.266 8.8086-7.9727 0-15.625-3.168-21.262-8.8086-5.6406-5.6406-8.8086-13.289-8.8086-21.266zm41.617 38.887v0.003907c10.043-3.043 18.535-9.8242 23.719-18.945l68.855 30.02-27.184 49.645zm68.223 77.617 116.93 108.74c-4.2656 6.1992-6.7031 13.473-7.0312 20.992h-147.05c-0.066407-12.793-6.1758-24.797-16.477-32.379zm-77.668 160.23c-7.9805 0.011719-15.637-3.1445-21.285-8.7773-5.6523-5.6328-8.832-13.281-8.8398-21.262-0.007813-7.9766 3.1523-15.633 8.7891-21.277 5.6367-5.6484 13.285-8.8203 21.266-8.8281 7.9766-0.003906 15.629 3.1641 21.273 8.8008 5.6445 5.6406 8.8125 13.293 8.8125 21.273-0.011719 7.9609-3.1797 15.594-8.8047 21.227-5.625 5.6367-13.25 8.8164-21.211 8.8438zm228.03 1.4688h-0.003906c-7.9727 0.011719-15.621-3.1406-21.27-8.7656-5.6523-5.625-8.8359-13.262-8.8516-21.234-0.019531-7.9727 3.1289-15.629 8.75-21.277 5.625-5.6523 13.262-8.8438 21.234-8.8633 7.9688-0.023438 15.625 3.1172 21.281 8.7383 5.6562 5.6172 8.8477 13.254 8.875 21.227 0.027343 7.9844-3.1211 15.652-8.75 21.312-5.6328 5.6602-13.285 8.8477-21.27 8.8633zm34.477-51.168c-6.9688-11.297-19.023-18.473-32.273-19.207l-14.383-92.629c6.7969-2.8945 12.672-7.582 17-13.566 4.3281-5.9805 6.9414-13.031 7.5625-20.387l40.777-19.734 34.898 77.355zm128.68-191.34c6.1719-0.36328 12.176-2.1602 17.531-5.2461l-24.352 178.54c-7.7109 0.92578-14.996 4.0391-20.992 8.9766l-35.426-78.355zm-2.2031 243.82c-7.9805 0.011719-15.641-3.1484-21.289-8.7852-5.6523-5.6367-8.8281-13.289-8.832-21.27-0.007813-7.9805 3.1641-15.637 8.8047-21.281 5.6445-5.6445 13.301-8.8125 21.281-8.8086 7.9844 0.007813 15.633 3.1836 21.273 8.832 5.6367 5.6523 8.7969 13.312 8.7812 21.293-0.015625 7.957-3.1797 15.586-8.8086 21.211-5.625 5.625-13.254 8.793-21.211 8.8086z"></path>

      </g>
      </svg>