<svg id="svg" fill="#ffffff" stroke="#ffffff" width="200" height="200" version="1.1" viewBox="144 144 512 512" xmlns="http://www.w3.org/2000/svg">
    <g id="IconSvg_bgCarrier" stroke-width="0"></g>
    <g id="IconSvg_tracerCarrier" stroke-linecap="round" stroke-linejoin="round" stroke="#CCCCCC" stroke-width="0">
      <g xmlns="http://www.w3.org/2000/svg" fill-rule="evenodd">
  <path d="m612.22 480.71h-287.11c-3.8164 0-6.9102-3.0938-6.9102-6.9102l0.003906-287.11c0-3.8164 3.0938-6.9102 6.9102-6.9102 3.8164 0 6.9102 3.0938 6.9102 6.9102v280.2h280.2c3.8164 0 6.9102 3.0938 6.9102 6.9102-0.003907 3.8125-3.1016 6.9062-6.9141 6.9062z"></path>
  <path d="m188.4 617.43c-1.7617 0-3.5391-0.67188-4.8828-2.0273-2.6992-2.6992-2.6992-7.0781 0-9.7773l136.71-136.71c2.6992-2.6992 7.0781-2.6992 9.7773 0 2.6992 2.6992 2.6992 7.0781 0 9.7773l-136.73 136.71c-1.3438 1.3438-3.1211 2.0273-4.8828 2.0273z"></path>
  <path d="m472.09 291.58h-32.758c-3.8164 0-6.9102-3.0938-6.9102-6.9102v-32.758c0-3.8164 3.0938-6.9102 6.9102-6.9102h32.758c3.8164 0 6.9102 3.0938 6.9102 6.9102v32.758c0 3.8164-3.0938 6.9102-6.9102 6.9102zm-25.848-13.816h18.941v-18.941h-18.941z"></path>
  <path d="m433.92 367.06h-32.758c-3.8164 0-6.9102-3.0938-6.9102-6.9102v-32.758c0-3.8164 3.0938-6.9102 6.9102-6.9102h32.758c3.8164 0 6.9102 3.0938 6.9102 6.9102v32.758c0 3.8164-3.0977 6.9102-6.9102 6.9102zm-25.852-13.82h18.941v-18.941h-18.941z"></path>
  <path d="m395.75 442.55h-32.758c-3.8164 0-6.9102-3.0938-6.9102-6.9102l-0.003907-32.758c0-3.8164 3.0938-6.9102 6.9102-6.9102h32.758c3.8164 0 6.9102 3.0938 6.9102 6.9102v32.758c0 3.8164-3.0938 6.9102-6.9062 6.9102zm-25.852-13.82h18.941v-18.941h-18.941z"></path>
  <path d="m321.27 580.4c-12.848 0-23.281-10.449-23.281-23.281 0-12.836 10.449-23.281 23.281-23.281 12.836 0 23.281 10.449 23.281 23.281 0 12.832-10.445 23.281-23.281 23.281zm0-32.758c-5.2188 0-9.4648 4.2461-9.4648 9.4648s4.2461 9.4648 9.4648 9.4648 9.4648-4.2461 9.4648-9.4648c0-5.207-4.2461-9.4648-9.4648-9.4648z"></path>
  <path d="m513.68 442.55h-32.758c-3.8164 0-6.9102-3.0938-6.9102-6.9102v-32.758c0-3.8164 3.0938-6.9102 6.9102-6.9102h32.758c3.8164 0 6.9102 3.0938 6.9102 6.9102v32.758c-0.011719 3.8164-3.0977 6.9102-6.9102 6.9102zm-25.852-13.82h18.941v-18.941h-18.941z"></path>
  <path d="m550.42 367.06h-32.758c-3.8164 0-6.9102-3.0938-6.9102-6.9102v-32.758c0-3.8164 3.0938-6.9102 6.9102-6.9102h32.758c3.8164 0 6.9102 3.0938 6.9102 6.9102v32.758c0 3.8164-3.0977 6.9102-6.9102 6.9102zm-25.852-13.82h18.941v-18.941h-18.941z"></path>
  <path d="m423.81 545.36c-12.848 0-23.281-10.449-23.281-23.281 0-12.836 10.449-23.281 23.281-23.281 12.836 0 23.281 10.449 23.281 23.281 0.003906 12.844-10.445 23.281-23.281 23.281zm0-32.746c-5.2188 0-9.4648 4.2461-9.4648 9.4648s4.2461 9.4648 9.4648 9.4648 9.4648-4.2461 9.4648-9.4648-4.2461-9.4648-9.4648-9.4648z"></path>
  <path d="m407.58 621.99c-12.848 0-23.281-10.449-23.281-23.281 0-12.836 10.449-23.281 23.281-23.281 12.836 0 23.281 10.449 23.281 23.281 0.003906 12.832-10.445 23.281-23.281 23.281zm0-32.762c-5.2188 0-9.4648 4.2461-9.4648 9.4648s4.2461 9.4648 9.4648 9.4648 9.4648-4.2461 9.4648-9.4648-4.2461-9.4648-9.4648-9.4648z"></path>
  <path d="m500.43 593.22c-12.836 0-23.281-10.449-23.281-23.281 0-12.836 10.449-23.281 23.281-23.281 12.836 0 23.281 10.449 23.281 23.281 0.011719 12.832-10.434 23.281-23.281 23.281zm0-32.762c-5.2188 0-9.4648 4.2461-9.4648 9.4648s4.2461 9.4648 9.4648 9.4648 9.4648-4.2461 9.4648-9.4648c0.011719-5.2188-4.2344-9.4648-9.4648-9.4648z"></path>
  <path d="m570.5 545.36c-12.836 0-23.281-10.449-23.281-23.281 0-12.836 10.449-23.281 23.281-23.281 12.836 0 23.281 10.449 23.281 23.281 0 12.844-10.449 23.281-23.281 23.281zm0-32.746c-5.2188 0-9.4648 4.2461-9.4648 9.4648s4.2461 9.4648 9.4648 9.4648 9.4648-4.2461 9.4648-9.4648c-0.003906-5.2188-4.25-9.4648-9.4648-9.4648z"></path>
  <path d="m218.45 347.93c-1.7617 0-3.5391-0.67188-4.8828-2.0273l-23.164-23.164c-1.2969-1.2969-2.0273-3.0469-2.0273-4.8828 0-1.8359 0.73047-3.5859 2.0273-4.8828l23.164-23.164c1.2969-1.2969 3.0469-2.0273 4.8828-2.0273 1.8359 0 3.5859 0.73047 4.8828 2.0273l23.164 23.164c2.6992 2.6992 2.6992 7.0781 0 9.7773l-23.164 23.152c-1.3438 1.3555-3.1172 2.0273-4.8828 2.0273zm-13.387-30.07 13.387 13.387 13.387-13.387-13.387-13.387z"></path>
  <path d="m224.71 498.89c-1.8359 0-3.5859-0.73047-4.8828-2.0273l-23.164-23.164c-1.2969-1.2969-2.0273-3.0586-2.0273-4.8828 0-1.8359 0.73047-3.5859 2.0273-4.8828l23.164-23.164c2.6992-2.6992 7.0781-2.6992 9.7773 0l23.164 23.164c2.6992 2.6992 2.6992 7.0781 0 9.7773l-23.164 23.164c-1.3047 1.2812-3.0586 2.0156-4.8945 2.0156zm-13.387-30.074 13.387 13.387 13.387-13.387-13.387-13.387z"></path>
  <path d="m261.45 423.4c-1.8359 0-3.5859-0.73047-4.8828-2.0273l-23.164-23.164c-2.6992-2.6992-2.6992-7.0781 0-9.7773l23.164-23.164c1.2969-1.2969 3.0469-2.0273 4.8828-2.0273 1.8359 0 3.5859 0.73047 4.8828 2.0273l23.164 23.164c2.6992 2.6992 2.6992 7.0781 0 9.7773l-23.164 23.164c-1.2812 1.3086-3.0469 2.0273-4.8828 2.0273zm-13.387-30.062 13.387 13.387 13.387-13.387-13.387-13.398z"></path>
 </g>

      </g>
     <g id="IconSvg_iconCarrier">
      <g xmlns="http://www.w3.org/2000/svg" fill-rule="evenodd">
  <path d="m612.22 480.71h-287.11c-3.8164 0-6.9102-3.0938-6.9102-6.9102l0.003906-287.11c0-3.8164 3.0938-6.9102 6.9102-6.9102 3.8164 0 6.9102 3.0938 6.9102 6.9102v280.2h280.2c3.8164 0 6.9102 3.0938 6.9102 6.9102-0.003907 3.8125-3.1016 6.9062-6.9141 6.9062z"></path>
  <path d="m188.4 617.43c-1.7617 0-3.5391-0.67188-4.8828-2.0273-2.6992-2.6992-2.6992-7.0781 0-9.7773l136.71-136.71c2.6992-2.6992 7.0781-2.6992 9.7773 0 2.6992 2.6992 2.6992 7.0781 0 9.7773l-136.73 136.71c-1.3438 1.3438-3.1211 2.0273-4.8828 2.0273z"></path>
  <path d="m472.09 291.58h-32.758c-3.8164 0-6.9102-3.0938-6.9102-6.9102v-32.758c0-3.8164 3.0938-6.9102 6.9102-6.9102h32.758c3.8164 0 6.9102 3.0938 6.9102 6.9102v32.758c0 3.8164-3.0938 6.9102-6.9102 6.9102zm-25.848-13.816h18.941v-18.941h-18.941z"></path>
  <path d="m433.92 367.06h-32.758c-3.8164 0-6.9102-3.0938-6.9102-6.9102v-32.758c0-3.8164 3.0938-6.9102 6.9102-6.9102h32.758c3.8164 0 6.9102 3.0938 6.9102 6.9102v32.758c0 3.8164-3.0977 6.9102-6.9102 6.9102zm-25.852-13.82h18.941v-18.941h-18.941z"></path>
  <path d="m395.75 442.55h-32.758c-3.8164 0-6.9102-3.0938-6.9102-6.9102l-0.003907-32.758c0-3.8164 3.0938-6.9102 6.9102-6.9102h32.758c3.8164 0 6.9102 3.0938 6.9102 6.9102v32.758c0 3.8164-3.0938 6.9102-6.9062 6.9102zm-25.852-13.82h18.941v-18.941h-18.941z"></path>
  <path d="m321.27 580.4c-12.848 0-23.281-10.449-23.281-23.281 0-12.836 10.449-23.281 23.281-23.281 12.836 0 23.281 10.449 23.281 23.281 0 12.832-10.445 23.281-23.281 23.281zm0-32.758c-5.2188 0-9.4648 4.2461-9.4648 9.4648s4.2461 9.4648 9.4648 9.4648 9.4648-4.2461 9.4648-9.4648c0-5.207-4.2461-9.4648-9.4648-9.4648z"></path>
  <path d="m513.68 442.55h-32.758c-3.8164 0-6.9102-3.0938-6.9102-6.9102v-32.758c0-3.8164 3.0938-6.9102 6.9102-6.9102h32.758c3.8164 0 6.9102 3.0938 6.9102 6.9102v32.758c-0.011719 3.8164-3.0977 6.9102-6.9102 6.9102zm-25.852-13.82h18.941v-18.941h-18.941z"></path>
  <path d="m550.42 367.06h-32.758c-3.8164 0-6.9102-3.0938-6.9102-6.9102v-32.758c0-3.8164 3.0938-6.9102 6.9102-6.9102h32.758c3.8164 0 6.9102 3.0938 6.9102 6.9102v32.758c0 3.8164-3.0977 6.9102-6.9102 6.9102zm-25.852-13.82h18.941v-18.941h-18.941z"></path>
  <path d="m423.81 545.36c-12.848 0-23.281-10.449-23.281-23.281 0-12.836 10.449-23.281 23.281-23.281 12.836 0 23.281 10.449 23.281 23.281 0.003906 12.844-10.445 23.281-23.281 23.281zm0-32.746c-5.2188 0-9.4648 4.2461-9.4648 9.4648s4.2461 9.4648 9.4648 9.4648 9.4648-4.2461 9.4648-9.4648-4.2461-9.4648-9.4648-9.4648z"></path>
  <path d="m407.58 621.99c-12.848 0-23.281-10.449-23.281-23.281 0-12.836 10.449-23.281 23.281-23.281 12.836 0 23.281 10.449 23.281 23.281 0.003906 12.832-10.445 23.281-23.281 23.281zm0-32.762c-5.2188 0-9.4648 4.2461-9.4648 9.4648s4.2461 9.4648 9.4648 9.4648 9.4648-4.2461 9.4648-9.4648-4.2461-9.4648-9.4648-9.4648z"></path>
  <path d="m500.43 593.22c-12.836 0-23.281-10.449-23.281-23.281 0-12.836 10.449-23.281 23.281-23.281 12.836 0 23.281 10.449 23.281 23.281 0.011719 12.832-10.434 23.281-23.281 23.281zm0-32.762c-5.2188 0-9.4648 4.2461-9.4648 9.4648s4.2461 9.4648 9.4648 9.4648 9.4648-4.2461 9.4648-9.4648c0.011719-5.2188-4.2344-9.4648-9.4648-9.4648z"></path>
  <path d="m570.5 545.36c-12.836 0-23.281-10.449-23.281-23.281 0-12.836 10.449-23.281 23.281-23.281 12.836 0 23.281 10.449 23.281 23.281 0 12.844-10.449 23.281-23.281 23.281zm0-32.746c-5.2188 0-9.4648 4.2461-9.4648 9.4648s4.2461 9.4648 9.4648 9.4648 9.4648-4.2461 9.4648-9.4648c-0.003906-5.2188-4.25-9.4648-9.4648-9.4648z"></path>
  <path d="m218.45 347.93c-1.7617 0-3.5391-0.67188-4.8828-2.0273l-23.164-23.164c-1.2969-1.2969-2.0273-3.0469-2.0273-4.8828 0-1.8359 0.73047-3.5859 2.0273-4.8828l23.164-23.164c1.2969-1.2969 3.0469-2.0273 4.8828-2.0273 1.8359 0 3.5859 0.73047 4.8828 2.0273l23.164 23.164c2.6992 2.6992 2.6992 7.0781 0 9.7773l-23.164 23.152c-1.3438 1.3555-3.1172 2.0273-4.8828 2.0273zm-13.387-30.07 13.387 13.387 13.387-13.387-13.387-13.387z"></path>
  <path d="m224.71 498.89c-1.8359 0-3.5859-0.73047-4.8828-2.0273l-23.164-23.164c-1.2969-1.2969-2.0273-3.0586-2.0273-4.8828 0-1.8359 0.73047-3.5859 2.0273-4.8828l23.164-23.164c2.6992-2.6992 7.0781-2.6992 9.7773 0l23.164 23.164c2.6992 2.6992 2.6992 7.0781 0 9.7773l-23.164 23.164c-1.3047 1.2812-3.0586 2.0156-4.8945 2.0156zm-13.387-30.074 13.387 13.387 13.387-13.387-13.387-13.387z"></path>
  <path d="m261.45 423.4c-1.8359 0-3.5859-0.73047-4.8828-2.0273l-23.164-23.164c-2.6992-2.6992-2.6992-7.0781 0-9.7773l23.164-23.164c1.2969-1.2969 3.0469-2.0273 4.8828-2.0273 1.8359 0 3.5859 0.73047 4.8828 2.0273l23.164 23.164c2.6992 2.6992 2.6992 7.0781 0 9.7773l-23.164 23.164c-1.2812 1.3086-3.0469 2.0273-4.8828 2.0273zm-13.387-30.062 13.387 13.387 13.387-13.387-13.387-13.398z"></path>
 </g>

      </g>
      </svg>