<svg id="svg" fill="#ffffff" stroke="#ffffff" width="200" height="200" version="1.1" viewBox="144 144 512 512" xmlns="http://www.w3.org/2000/svg">
    <g id="IconSvg_bgCarrier" stroke-width="0"></g>
    <g id="IconSvg_tracerCarrier" stroke-linecap="round" stroke-linejoin="round" stroke="#CCCCCC" stroke-width="0">
      <path xmlns="http://www.w3.org/2000/svg" d="m541.47 629.53c-1.875 0-3.7617-0.44141-5.4961-1.3555l-135.98-71.492-136 71.508c-3.9688 2.0781-8.8164 1.7305-12.422-0.89844-3.6367-2.6445-5.4648-7.1172-4.707-11.539l25.945-151.44-110-107.25c-3.2109-3.1328-4.375-7.8398-2.9766-12.105 1.3867-4.2656 5.0703-7.3828 9.5234-8.0312l152.02-22.09 68-137.78c2.0156-4.043 6.125-6.5938 10.613-6.5938s8.5977 2.5508 10.598 6.582l67.969 137.78 152.05 22.09c4.457 0.64453 8.1562 3.7617 9.5234 8.0312 1.4023 4.2656 0.23438 8.9727-2.9766 12.105l-114.48 111.58c-4.6602 4.5664-12.137 4.4727-16.703-0.21875-4.5508-4.6602-4.457-12.137 0.21875-16.703l97.344-94.875-134.52-19.555c-3.8555-0.56641-7.1797-2.9766-8.8945-6.4531l-60.141-121.86-60.156 121.89c-1.7148 3.4805-5.0391 5.9023-8.8945 6.4531l-134.52 19.539 97.328 94.875c2.7852 2.707 4.0625 6.6133 3.4023 10.453l-22.957 133.96 120.32-63.258c3.418-1.793 7.5586-1.793 10.973 0l120.32 63.258-13.145-76.609c-1.1016-6.4219 3.2109-12.531 9.6367-13.633 6.4883-1.0547 12.531 3.2266 13.633 9.6367l17.191 100.2c0.75391 4.4414-1.0547 8.9102-4.707 11.555-2.0469 1.4922-4.4883 2.25-6.9453 2.25z"></path>

      </g>
     <g id="IconSvg_iconCarrier">
      <path xmlns="http://www.w3.org/2000/svg" d="m541.47 629.53c-1.875 0-3.7617-0.44141-5.4961-1.3555l-135.98-71.492-136 71.508c-3.9688 2.0781-8.8164 1.7305-12.422-0.89844-3.6367-2.6445-5.4648-7.1172-4.707-11.539l25.945-151.44-110-107.25c-3.2109-3.1328-4.375-7.8398-2.9766-12.105 1.3867-4.2656 5.0703-7.3828 9.5234-8.0312l152.02-22.09 68-137.78c2.0156-4.043 6.125-6.5938 10.613-6.5938s8.5977 2.5508 10.598 6.582l67.969 137.78 152.05 22.09c4.457 0.64453 8.1562 3.7617 9.5234 8.0312 1.4023 4.2656 0.23438 8.9727-2.9766 12.105l-114.48 111.58c-4.6602 4.5664-12.137 4.4727-16.703-0.21875-4.5508-4.6602-4.457-12.137 0.21875-16.703l97.344-94.875-134.52-19.555c-3.8555-0.56641-7.1797-2.9766-8.8945-6.4531l-60.141-121.86-60.156 121.89c-1.7148 3.4805-5.0391 5.9023-8.8945 6.4531l-134.52 19.539 97.328 94.875c2.7852 2.707 4.0625 6.6133 3.4023 10.453l-22.957 133.96 120.32-63.258c3.418-1.793 7.5586-1.793 10.973 0l120.32 63.258-13.145-76.609c-1.1016-6.4219 3.2109-12.531 9.6367-13.633 6.4883-1.0547 12.531 3.2266 13.633 9.6367l17.191 100.2c0.75391 4.4414-1.0547 8.9102-4.707 11.555-2.0469 1.4922-4.4883 2.25-6.9453 2.25z"></path>

      </g>
      </svg>